<?xml version="1.0" standalone="no"?><!DOCTYPE svg PUBLIC "-//W3C//DTD SVG 1.1//EN" "http://www.w3.org/Graphics/SVG/1.1/DTD/svg11.dtd"><svg t="1660145719932" class="icon" viewBox="0 0 1024 1024" version="1.1" xmlns="http://www.w3.org/2000/svg" p-id="2493" data-spm-anchor-id="a313x.7781069.0.i4" width="200" height="200" xmlns:xlink="http://www.w3.org/1999/xlink"><defs><style type="text/css">@font-face { font-family: feedback-iconfont; src: url("//at.alicdn.com/t/font_1031158_u69w8yhxdu.woff2?t=1630033759944") format("woff2"), url("//at.alicdn.com/t/font_1031158_u69w8yhxdu.woff?t=1630033759944") format("woff"), url("//at.alicdn.com/t/font_1031158_u69w8yhxdu.ttf?t=1630033759944") format("truetype"); }
</style></defs><path d="M64 129.9v717.2c0 21.4 13.3 39.6 32 47v-53.6c0-229.7 186.2-416 416-416s416 186.2 416 416v53.6c18.7-7.4 32-25.6 32-47V129.9H64z m593 115.3c0 24.3-19.9 44.2-44.2 44.2H411.2c-24.3 0-44.2-19.9-44.2-44.2 0-24.3 19.9-44.2 44.2-44.2h201.5c24.4 0 44.3 19.9 44.3 44.2z" fill="#296ce0" p-id="2494" data-spm-anchor-id="a313x.7781069.0.i11" class=""></path><path d="M643.8 894.1c7.8-17.7 12.2-37.3 12.2-57.9 0-79.5-64.4-143.9-143.9-143.9s-143.9 64.4-143.9 143.9c0 20.6 4.3 40.2 12.2 57.9h263.4z" fill="#3573e0" p-id="2495" data-spm-anchor-id="a313x.7781069.0.i9" class=""></path><path d="M176.1 645.8c-31.8 56.1-50 121-50 190.1v58.2h193.3L176.1 645.8z" fill="#479851" p-id="2496" data-spm-anchor-id="a313x.7781069.0.i10" class=""></path><path d="M512 450c-132.2 0-248.8 66.4-318.3 167.7L348 884.9c-4.6-15.5-7.1-31.8-7.1-48.8 0-94.5 76.6-171.1 171.1-171.1 9.2 0 18.2 0.7 27.1 2.1L841 634c-67.9-110.4-189.9-184-329-184z" fill="#ce4737" p-id="2497" data-spm-anchor-id="a313x.7781069.0.i7" class=""></path><path d="M600.8 689.8c49.4 30 82.3 84.3 82.3 146.3 0 20.3-3.6 39.8-10.1 57.9h224.9v-58.2c0-62.6-14.9-121.8-41.4-174.1l-255.7 28.1z" fill="#f3c247" p-id="2498" data-spm-anchor-id="a313x.7781069.0.i8" class=""></path></svg>